<mxfile host="app.diagrams.net" modified="2024-03-22T09:50:36.984Z" agent="Mozilla/5.0 (Windows NT 10.0; Win64; x64) AppleWebKit/537.36 (KHTML, like Gecko) Chrome/122.0.0.0 Safari/537.36" etag="M6NsWc_toJy1ZPGYbInr" version="24.0.7" type="device">
  <diagram id="C5RBs43oDa-KdzZeNtuy" name="Page-1">
    <mxGraphModel dx="325" dy="716" grid="1" gridSize="10" guides="1" tooltips="1" connect="1" arrows="1" fold="1" page="1" pageScale="1" pageWidth="827" pageHeight="1169" math="0" shadow="0">
      <root>
        <mxCell id="WIyWlLk6GJQsqaUBKTNV-0" />
        <mxCell id="WIyWlLk6GJQsqaUBKTNV-1" parent="WIyWlLk6GJQsqaUBKTNV-0" />
        <mxCell id="Rf3-pzQk219E2_xTNCVn-15" value="&lt;p style=&quot;margin:0px;margin-top:4px;margin-left:10px;text-align:left;&quot;&gt;&lt;b&gt;Hauptmenu&lt;/b&gt;&lt;/p&gt;" style="html=1;shape=mxgraph.sysml.package;align=left;spacingLeft=5;verticalAlign=top;spacingTop=-3;labelX=135;html=1;overflow=fill;" parent="WIyWlLk6GJQsqaUBKTNV-1" vertex="1">
          <mxGeometry x="827" y="10" width="733" height="860" as="geometry" />
        </mxCell>
        <mxCell id="Rf3-pzQk219E2_xTNCVn-16" value="&lt;p style=&quot;margin:0px;margin-top:4px;text-align:center;&quot;&gt;Benutzer&lt;/p&gt;&lt;hr&gt;&lt;p style=&quot;margin:0px;margin-top:4px;text-align:center;&quot;&gt;&lt;br&gt;&lt;/p&gt;" style="shape=rect;html=1;overflow=fill;whiteSpace=wrap;" parent="WIyWlLk6GJQsqaUBKTNV-1" vertex="1">
          <mxGeometry x="837" y="40" width="353" height="820" as="geometry" />
        </mxCell>
        <mxCell id="Rf3-pzQk219E2_xTNCVn-17" value="&lt;p style=&quot;margin:0px;margin-top:4px;text-align:center;&quot;&gt;HoloLens2 (App)&lt;/p&gt;&lt;hr&gt;&lt;p style=&quot;margin:0px;margin-top:4px;text-align:center;&quot;&gt;&lt;br&gt;&lt;/p&gt;" style="shape=rect;html=1;overflow=fill;whiteSpace=wrap;" parent="WIyWlLk6GJQsqaUBKTNV-1" vertex="1">
          <mxGeometry x="1190" y="40" width="360" height="820" as="geometry" />
        </mxCell>
        <mxCell id="Rf3-pzQk219E2_xTNCVn-39" value="" style="shape=rect;html=1;rounded=1;verticalAlign=top;dashed=1;strokeWidth=2;whiteSpace=wrap;align=center;fillColor=none;arcSize=2;" parent="WIyWlLk6GJQsqaUBKTNV-1" vertex="1">
          <mxGeometry x="850" y="170" width="687" height="620" as="geometry" />
        </mxCell>
        <mxCell id="Rf3-pzQk219E2_xTNCVn-40" value="" style="shape=ellipse;html=1;fillColor=strokeColor;strokeWidth=2;verticalLabelPosition=bottom;verticalAlignment=top;perimeter=ellipsePerimeter;" parent="WIyWlLk6GJQsqaUBKTNV-1" vertex="1">
          <mxGeometry x="993.5" y="90" width="40" height="40" as="geometry" />
        </mxCell>
        <mxCell id="Rf3-pzQk219E2_xTNCVn-41" value="AARIE Applikation starten" style="shape=rect;html=1;rounded=1;whiteSpace=wrap;align=center;" parent="WIyWlLk6GJQsqaUBKTNV-1" vertex="1">
          <mxGeometry x="933.5" y="220" width="160" height="80" as="geometry" />
        </mxCell>
        <mxCell id="Rf3-pzQk219E2_xTNCVn-42" value="Brillenposition im Raum ermitteln" style="shape=rect;html=1;rounded=1;whiteSpace=wrap;align=center;" parent="WIyWlLk6GJQsqaUBKTNV-1" vertex="1">
          <mxGeometry x="1301" y="220" width="160" height="80" as="geometry" />
        </mxCell>
        <mxCell id="Rf3-pzQk219E2_xTNCVn-43" value="Men端 setzen" style="shape=rect;html=1;rounded=1;whiteSpace=wrap;align=center;" parent="WIyWlLk6GJQsqaUBKTNV-1" vertex="1">
          <mxGeometry x="1301" y="360" width="160" height="80" as="geometry" />
        </mxCell>
        <mxCell id="Rf3-pzQk219E2_xTNCVn-44" value="Hauptmen端 ansehen" style="shape=rect;html=1;rounded=1;whiteSpace=wrap;align=center;" parent="WIyWlLk6GJQsqaUBKTNV-1" vertex="1">
          <mxGeometry x="933.5" y="360" width="160" height="80" as="geometry" />
        </mxCell>
        <mxCell id="Rf3-pzQk219E2_xTNCVn-45" value="Szenario 1 laden" style="shape=rect;html=1;rounded=1;whiteSpace=wrap;align=center;" parent="WIyWlLk6GJQsqaUBKTNV-1" vertex="1">
          <mxGeometry x="1301" y="500" width="160" height="80" as="geometry" />
        </mxCell>
        <mxCell id="Rf3-pzQk219E2_xTNCVn-46" value="Szenario 2 laden" style="shape=rect;html=1;rounded=1;whiteSpace=wrap;align=center;" parent="WIyWlLk6GJQsqaUBKTNV-1" vertex="1">
          <mxGeometry x="1301" y="640" width="160" height="80" as="geometry" />
        </mxCell>
        <mxCell id="Rf3-pzQk219E2_xTNCVn-47" value="" style="html=1;shape=mxgraph.sysml.actFinal;strokeWidth=2;verticalLabelPosition=bottom;verticalAlignment=top;" parent="WIyWlLk6GJQsqaUBKTNV-1" vertex="1">
          <mxGeometry x="1487" y="810" width="40" height="40" as="geometry" />
        </mxCell>
        <mxCell id="Rf3-pzQk219E2_xTNCVn-48" value="" style="shape=rhombus;html=1;verticalLabelPosition=bottom;verticalAlignment=top;" parent="WIyWlLk6GJQsqaUBKTNV-1" vertex="1">
          <mxGeometry x="993.5" y="520" width="40" height="40" as="geometry" />
        </mxCell>
        <mxCell id="Rf3-pzQk219E2_xTNCVn-49" value="" style="edgeStyle=elbowEdgeStyle;html=1;elbow=horizontal;align=right;verticalAlign=bottom;endArrow=none;rounded=0;labelBackgroundColor=none;startArrow=open;startSize=12;entryX=0.5;entryY=1;entryDx=0;entryDy=0;exitX=0.5;exitY=0;exitDx=0;exitDy=0;" parent="WIyWlLk6GJQsqaUBKTNV-1" source="Rf3-pzQk219E2_xTNCVn-48" target="Rf3-pzQk219E2_xTNCVn-44" edge="1">
          <mxGeometry relative="1" as="geometry">
            <mxPoint x="981" y="500" as="targetPoint" />
            <mxPoint x="981" y="520" as="sourcePoint" />
          </mxGeometry>
        </mxCell>
        <mxCell id="Rf3-pzQk219E2_xTNCVn-50" value="[Szenario 1]" style="edgeStyle=elbowEdgeStyle;html=1;elbow=vertical;verticalAlign=bottom;endArrow=open;rounded=0;labelBackgroundColor=none;endSize=12;entryX=0;entryY=0.5;entryDx=0;entryDy=0;exitX=1;exitY=0.5;exitDx=0;exitDy=0;" parent="WIyWlLk6GJQsqaUBKTNV-1" source="Rf3-pzQk219E2_xTNCVn-48" target="Rf3-pzQk219E2_xTNCVn-45" edge="1">
          <mxGeometry x="-0.1597" relative="1" as="geometry">
            <mxPoint x="1081" y="560" as="targetPoint" />
            <mxPoint as="offset" />
          </mxGeometry>
        </mxCell>
        <mxCell id="Rf3-pzQk219E2_xTNCVn-51" value="[Szenario 2]" style="edgeStyle=elbowEdgeStyle;html=1;elbow=vertical;verticalAlign=bottom;endArrow=open;rounded=0;labelBackgroundColor=none;endSize=12;exitX=0.5;exitY=1;exitDx=0;exitDy=0;entryX=0;entryY=0.5;entryDx=0;entryDy=0;" parent="WIyWlLk6GJQsqaUBKTNV-1" source="Rf3-pzQk219E2_xTNCVn-48" target="Rf3-pzQk219E2_xTNCVn-46" edge="1">
          <mxGeometry x="0.2091" relative="1" as="geometry">
            <mxPoint x="881" y="560" as="targetPoint" />
            <Array as="points">
              <mxPoint x="1137" y="680" />
            </Array>
            <mxPoint as="offset" />
          </mxGeometry>
        </mxCell>
        <mxCell id="Rf3-pzQk219E2_xTNCVn-52" value="Welches Szenario starten?" style="text;html=1;align=center;verticalAlign=middle;whiteSpace=wrap;rounded=0;" parent="WIyWlLk6GJQsqaUBKTNV-1" vertex="1">
          <mxGeometry x="1010" y="465" width="120" height="30" as="geometry" />
        </mxCell>
        <mxCell id="Rf3-pzQk219E2_xTNCVn-53" value="HoloLens2 Hauptmen端button gedr端ckt" style="html=1;shape=mxgraph.sysml.accEvent;strokeWidth=2;whiteSpace=wrap;align=center;" parent="WIyWlLk6GJQsqaUBKTNV-1" vertex="1">
          <mxGeometry x="941.5" y="710" width="144" height="60" as="geometry" />
        </mxCell>
        <mxCell id="Rf3-pzQk219E2_xTNCVn-54" value="[Szenario 1]" style="edgeStyle=elbowEdgeStyle;html=1;elbow=vertical;verticalAlign=bottom;endArrow=open;rounded=0;labelBackgroundColor=none;endSize=12;entryX=0.5;entryY=0;entryDx=0;entryDy=0;exitX=0.5;exitY=1;exitDx=0;exitDy=0;" parent="WIyWlLk6GJQsqaUBKTNV-1" source="Rf3-pzQk219E2_xTNCVn-40" target="Rf3-pzQk219E2_xTNCVn-41" edge="1">
          <mxGeometry x="0.3407" y="36" relative="1" as="geometry">
            <mxPoint x="1311" y="550" as="targetPoint" />
            <mxPoint as="offset" />
            <mxPoint x="1011" y="550" as="sourcePoint" />
          </mxGeometry>
        </mxCell>
        <mxCell id="Rf3-pzQk219E2_xTNCVn-55" value="" style="edgeStyle=elbowEdgeStyle;html=1;elbow=vertical;verticalAlign=bottom;endArrow=open;rounded=0;labelBackgroundColor=none;endSize=12;entryX=0;entryY=0.5;entryDx=0;entryDy=0;exitX=1;exitY=0.5;exitDx=0;exitDy=0;" parent="WIyWlLk6GJQsqaUBKTNV-1" source="Rf3-pzQk219E2_xTNCVn-41" target="Rf3-pzQk219E2_xTNCVn-42" edge="1">
          <mxGeometry x="-0.6986" relative="1" as="geometry">
            <mxPoint x="1321" y="560" as="targetPoint" />
            <mxPoint as="offset" />
            <mxPoint x="1021" y="560" as="sourcePoint" />
          </mxGeometry>
        </mxCell>
        <mxCell id="Rf3-pzQk219E2_xTNCVn-56" value="" style="edgeStyle=elbowEdgeStyle;html=1;elbow=vertical;verticalAlign=bottom;endArrow=open;rounded=0;labelBackgroundColor=none;endSize=12;entryX=1;entryY=0.5;entryDx=0;entryDy=0;exitX=0;exitY=0.5;exitDx=0;exitDy=0;" parent="WIyWlLk6GJQsqaUBKTNV-1" source="Rf3-pzQk219E2_xTNCVn-43" target="Rf3-pzQk219E2_xTNCVn-44" edge="1">
          <mxGeometry x="-0.7153" relative="1" as="geometry">
            <mxPoint x="1331" y="570" as="targetPoint" />
            <mxPoint as="offset" />
            <mxPoint x="1031" y="570" as="sourcePoint" />
          </mxGeometry>
        </mxCell>
        <mxCell id="Rf3-pzQk219E2_xTNCVn-57" value="" style="edgeStyle=elbowEdgeStyle;html=1;elbow=vertical;verticalAlign=bottom;endArrow=open;rounded=0;labelBackgroundColor=none;endSize=12;entryX=0.5;entryY=0;entryDx=0;entryDy=0;exitX=0.5;exitY=1;exitDx=0;exitDy=0;" parent="WIyWlLk6GJQsqaUBKTNV-1" source="Rf3-pzQk219E2_xTNCVn-42" target="Rf3-pzQk219E2_xTNCVn-43" edge="1">
          <mxGeometry x="0.3333" y="36" relative="1" as="geometry">
            <mxPoint x="1341" y="580" as="targetPoint" />
            <mxPoint as="offset" />
            <mxPoint x="1041" y="580" as="sourcePoint" />
          </mxGeometry>
        </mxCell>
        <mxCell id="Rf3-pzQk219E2_xTNCVn-58" style="edgeStyle=isometricEdgeStyle;rounded=0;orthogonalLoop=1;jettySize=auto;html=1;exitX=1;exitY=0.5;exitDx=0;exitDy=0;exitPerimeter=0;entryX=0;entryY=0.5;entryDx=0;entryDy=0;fontSize=12;startSize=8;endSize=8;elbow=vertical;entryPerimeter=0;" parent="WIyWlLk6GJQsqaUBKTNV-1" source="Rf3-pzQk219E2_xTNCVn-53" target="Rf3-pzQk219E2_xTNCVn-47" edge="1">
          <mxGeometry relative="1" as="geometry">
            <mxPoint x="982" y="1000" as="sourcePoint" />
            <mxPoint x="982" y="850" as="targetPoint" />
          </mxGeometry>
        </mxCell>
        <mxCell id="Rf3-pzQk219E2_xTNCVn-59" value="" style="edgeStyle=elbowEdgeStyle;html=1;elbow=vertical;verticalAlign=bottom;endArrow=open;rounded=0;labelBackgroundColor=none;endSize=12;exitX=1;exitY=0.5;exitDx=0;exitDy=0;entryX=0.5;entryY=0;entryDx=0;entryDy=0;entryPerimeter=0;" parent="WIyWlLk6GJQsqaUBKTNV-1" source="Rf3-pzQk219E2_xTNCVn-45" target="Rf3-pzQk219E2_xTNCVn-47" edge="1">
          <mxGeometry x="-0.1597" relative="1" as="geometry">
            <mxPoint x="1311" y="550" as="targetPoint" />
            <mxPoint as="offset" />
            <mxPoint x="1011" y="550" as="sourcePoint" />
            <Array as="points">
              <mxPoint x="1497" y="540" />
            </Array>
          </mxGeometry>
        </mxCell>
        <mxCell id="Rf3-pzQk219E2_xTNCVn-60" value="" style="edgeStyle=elbowEdgeStyle;html=1;elbow=vertical;verticalAlign=bottom;endArrow=open;rounded=0;labelBackgroundColor=none;endSize=12;exitX=1;exitY=0.5;exitDx=0;exitDy=0;entryX=0.5;entryY=0;entryDx=0;entryDy=0;entryPerimeter=0;" parent="WIyWlLk6GJQsqaUBKTNV-1" source="Rf3-pzQk219E2_xTNCVn-46" target="Rf3-pzQk219E2_xTNCVn-47" edge="1">
          <mxGeometry x="-0.1597" relative="1" as="geometry">
            <mxPoint x="1517" y="850" as="targetPoint" />
            <mxPoint as="offset" />
            <mxPoint x="1471" y="550" as="sourcePoint" />
            <Array as="points">
              <mxPoint x="1487" y="680" />
            </Array>
          </mxGeometry>
        </mxCell>
      </root>
    </mxGraphModel>
  </diagram>
</mxfile>
